<svg xmlns="http://www.w3.org/2000/svg" viewBox="0 0 602 182"><path d="M374.006 142.184c-34.9 25.7-85.7 39.5-129.4 39.5-61.2 0-116.4-22.6-158.1-60.3-3.3-3-0.3-7 3.6-4.7 45.2 26.3 101 42 158.7 42 38.9 0 81.6-8 120.9-24.7 6-2.5 11 3.9 4.3 8.2z" fill="#FF9900"/><path d="M388.406 125.484c-4.5-5.7-29.7-2.7-41-1.4-3.4 0.4-4-2.6-0.9-4.8 20-14 52.8-10 56.6-5.3 3.8 4.8-1 37.6-19.7 53.3-2.9 2.5-5.7 1.2-4.4-2 4.3-10.7 14-34.8 9.4-39.8z" fill="#FF9900"/><path d="M348.506 20.184c-11.6 0.9-22.1 3.7-32.4 9-1.3 0.7-1.1 1.6 0.4 1.5 2.3-0.2 7.4-0.9 11.7 0.1 4.2 1 7.9 3.1 9.4 6.6 0.1 0.3 0.4 0.2 0.4-0.1 0.3-2.3 1.2-7.3 6.4-9.4 5.1-2.1 9.5-1.4 11.2-1.1 0.3 0 0.4-0.2 0.1-0.4-1.7-2.3-4.2-4.6-7.2-6.2z" fill="#333"/><path d="M350.506 33.584v-5.7c0-0.9 0.7-1.5 1.5-1.5h26.3c0.8 0 1.5 0.7 1.5 1.5v4.9c0 0.8-0.7 2-2 3.6l-13.6 19.4c5.1-0.1 10.4 0.6 15 3.4 1 0.6 1.3 1.5 1.4 2.3v6.1c0 0.9-1 1.9-2 1.4-8.4-4.4-19.6-4.9-28.9 0.1-0.9 0.5-1.9-0.5-1.9-1.4v-5.8c0-1 0-2.7 1-4.2l15.8-22.6h-13.7c-0.8 0-1.5-0.7-1.5-1.5z" fill="#333"/><path d="M124.306 105.584h-8c-0.8-0.1-1.4-0.6-1.4-1.4v-41.1c0-0.8 0.7-1.5 1.5-1.5h7.4c0.8 0 1.4 0.6 1.5 1.4v5.4h0.1c1.9-5.2 5.6-7.7 10.5-7.7 5 0 8.1 2.5 10.3 7.7 1.9-5.2 6.3-7.7 11-7.7 3.3 0 7 1.4 9.2 4.4 2.5 3.4 2 8.3 2 12.6l0 27.3c0 0.8-0.7 1.5-1.5 1.5h-8c-0.8-0.1-1.4-0.7-1.4-1.5v-22.9c0-1.8 0.2-6.3-0.2-8.1-0.7-2.9-2.6-3.7-5.2-3.7-2.1 0-4.4 1.4-5.3 3.7-0.9 2.3-0.8 6.1-0.8 8.1v22.9c0 0.8-0.7 1.5-1.5 1.5h-8c-0.8-0.1-1.4-0.7-1.4-1.5v-22.9c0-4.8 0.8-11.9-5.2-11.9-6.1 0-5.8 6.9-5.8 11.9v22.9c0 0.8-0.7 1.5-1.5 1.5z" fill="#333"/><path d="M210.206 61.284c11.8 0 18.2 10.1 18.2 23 0 12.5-7.1 22.3-18.2 22.3-11.6 0-17.9-10.1-17.9-22.7 0-12.7 6.4-22.6 17.9-22.6zM210.306 69.584c-5.9 0-6.3 8-6.3 13 0 5 0 15.6 6.2 15.6 6.2 0 6.5-8.6 6.5-13.9 0-3.5-0.1-7.6-1.2-10.8-0.9-2.9-2.8-3.9-5.2-3.9z" fill="#333"/><path d="M290.506 105.584h-8c-0.8-0.1-1.4-0.7-1.4-1.5v-41.1c0-0.8 0.7-1.5 1.5-1.4h7.5c0.7 0 1.3 0.5 1.4 1.2v6.3h0.1c2.3-5.7 5.4-8.4 11-8.4 3.6 0 7.2 1.3 9.5 4.9 2.1 3.3 2.1 8.9 2.1 12.9v26c-0.1 0.8-0.7 1.4-1.5 1.4h-8.1c-0.7-0.1-1.3-0.6-1.4-1.3v-22.4c0-4.5 0.5-11.2-5.1-11.2-2 0-3.8 1.3-4.7 3.4-1.1 2.6-1.3 5.1-1.3 7.8v22.2c0 0.8-0.7 1.5-1.5 1.5z" fill="#333"/><path d="M248.906 86.884c0 3.2 0.1 5.8-1.5 8.6-1.3 2.3-3.3 3.7-5.5 3.7-3.1 0-4.9-2.3-4.9-5.8 0-6.8 6.1-8.1 11.9-8.1v1.6zM257.006 105.484c-0.5 0.5-1.3 0.5-1.9 0.2-2.7-2.2-3.2-3.3-4.6-5.4-4.4 4.5-7.6 5.8-13.3 5.8-6.8 0-12.1-4.2-12.1-12.6 0-6.5 3.6-11 8.6-13.2 4.4-1.9 10.5-2.3 15.2-2.8v-1c0-1.9 0.2-4.2-1-5.9-1-1.5-2.9-2.1-4.6-2.1-3.1 0-5.9 1.6-6.6 4.9-0.1 0.7-0.7 1.4-1.4 1.4l-7.8-0.9c-0.7-0.2-1.4-0.7-1.3-1.6 2-10.3 11.3-13.4 19.7-13.4 4.3 0 9.9 1.1 13.3 4.4 4.3 4 3.9 9.4 3.9 15.2v13.7c0 4.1 1.7 5.9 3.3 8.2 0.6 0.8 0.7 1.8 0 2.3-1.9 1.5-5.1 4.3-6.9 5.9h-0.1z" fill="#333"/><path d="M55.006 86.884c0 3.2 0.1 5.8-1.5 8.6-1.3 2.3-3.3 3.7-5.5 3.7-3.1 0-4.9-2.3-4.9-5.8 0-6.8 6.1-8.1 11.9-8.1v1.6zM63.106 105.484c-0.5 0.5-1.3 0.5-1.9 0.2-2.7-2.2-3.2-3.3-4.6-5.4-4.4 4.5-7.6 5.8-13.3 5.8-6.8 0-12.1-4.2-12.1-12.6 0-6.5 3.6-11 8.6-13.2 4.4-1.9 10.5-2.3 15.2-2.8v-1c0-1.9 0.2-4.2-1-5.9-1-1.5-2.9-2.1-4.6-2.1-3.1 0-5.9 1.6-6.6 4.9-0.1 0.7-0.7 1.4-1.4 1.4l-7.8-0.9c-0.7-0.2-1.4-0.7-1.3-1.6 2-10.3 11.3-13.4 19.7-13.4 4.3 0 9.9 1.1 13.3 4.4 4.3 4 3.9 9.4 3.9 15.2v13.7c0 4.1 1.7 5.9 3.3 8.2 0.6 0.8 0.7 1.8 0 2.3-1.9 1.5-5.1 4.3-6.9 5.9h-0.1z" fill="#333"/></svg>
