<svg xmlns="http://www.w3.org/2000/svg" viewBox="0 0 1000 400"><path d="M0,172.3h111.6v17.7H0V172.3z M127.6,172.3h111.6v17.7H127.6V172.3z M255.1,172.3h111.6v17.7H255.1V172.3z M498.9,172.3h111.6v17.7H498.9V172.3z M626.4,172.3H738v17.7H626.4V172.3z M753.9,172.3h111.6v17.7H753.9V172.3z M0,208.9h111.6v17.7H0V208.9z M127.6,208.9h111.6v17.7H127.6V208.9z M255.1,208.9h111.6v17.7H255.1V208.9z M382.7,208.9h111.6v17.7H382.7V208.9z M498.9,208.9h111.6v17.7H498.9V208.9z M626.4,208.9H738v17.7H626.4V208.9z M753.9,208.9h111.6v17.7H753.9V208.9z M881.5,208.9h111.6v17.7H881.5V208.9z M127.6,245.5h111.6v17.7H127.6V245.5z M255.1,245.5h111.6v17.7H255.1V245.5z M382.7,245.5h111.6v17.7H382.7V245.5z M498.9,245.5h111.6v17.7H498.9V245.5z M626.4,245.5H738v17.7H626.4V245.5z M753.9,245.5h111.6v17.7H753.9V245.5z M127.6,282.1h111.6v17.7H127.6V282.1z M255.1,282.1h111.6v17.7H255.1V282.1z M382.7,282.1h111.6v17.7H382.7V282.1z M498.9,282.1h111.6v17.7H498.9V282.1z M626.4,282.1H738v17.7H626.4V282.1z M753.9,282.1h111.6v17.7H753.9V282.1z M0,318.7h111.6v17.7H0V318.7z M127.6,318.7h111.6v17.7H127.6V318.7z M255.1,318.7h111.6v17.7H255.1V318.7z M498.9,318.7h111.6v17.7H498.9V318.7z M626.4,318.7H738v17.7H626.4V318.7z M753.9,318.7h111.6v17.7H753.9V318.7z M0,355.3h111.6V373H0V355.3z M127.6,355.3h111.6V373H127.6V355.3z M255.1,355.3h111.6V373H255.1V355.3z M498.9,355.3h111.6V373H498.9V355.3z M626.4,355.3H738V373H626.4V355.3z M753.9,355.3h111.6V373H753.9V355.3z" fill="#1F70C1"/></svg>
