<svg xmlns="http://www.w3.org/2000/svg" viewBox="0 0 1000 1000"><path d="M500,132.4c-108.3,0-125,0.3-168.5,2.5c-43.5,2-73.2,8.9-99.2,19c-26.9,10.5-49.7,24.4-72.4,47.1c-22.7,22.7-36.7,45.5-47.1,72.4c-10.1,26-17,55.7-19,99.2c-2.1,43.5-2.5,60.2-2.5,168.5s0.3,125,2.5,168.5c2,43.5,8.9,73.2,19,99.2c10.5,26.9,24.4,49.7,47.1,72.4c22.7,22.7,45.5,36.7,72.4,47.1c26,10.1,55.7,17,99.2,19c43.5,2.1,60.2,2.5,168.5,2.5s125-0.3,168.5-2.5c43.5-2,73.2-8.9,99.2-19c26.9-10.5,49.7-24.4,72.4-47.1c22.7-22.7,36.7-45.5,47.1-72.4c10.1-26,17-55.7,19-99.2c2.1-43.5,2.5-60.2,2.5-168.5s-0.3-125-2.5-168.5c-2-43.5-8.9-73.2-19-99.2c-10.5-26.9-24.4-49.7-47.1-72.4c-22.7-22.7-45.5-36.7-72.4-47.1c-26-10.1-55.7-17-99.2-19C625,132.8,608.3,132.4,500,132.4z M500,194.7c106.3,0,118.9,0.4,160.9,2.3c38.8,1.8,59.9,8.3,73.9,13.7c18.6,7.2,31.8,15.8,45.8,29.7c13.9,13.9,22.5,27.2,29.7,45.8c5.4,14,11.9,35.1,13.7,73.9c1.9,42,2.3,54.6,2.3,160.9s-0.4,118.9-2.3,160.9c-1.8,38.8-8.3,59.9-13.7,73.9c-7.2,18.6-15.8,31.8-29.7,45.8c-13.9,13.9-27.2,22.5-45.8,29.7c-14,5.4-35.1,11.9-73.9,13.7c-42,1.9-54.6,2.3-160.9,2.3s-118.9-0.4-160.9-2.3c-38.8-1.8-59.9-8.3-73.9-13.7c-18.6-7.2-31.8-15.8-45.8-29.7c-13.9-13.9-22.5-27.2-29.7-45.8c-5.4-14-11.9-35.1-13.7-73.9c-1.9-42-2.3-54.6-2.3-160.9s0.4-118.9,2.3-160.9c1.8-38.8,8.3-59.9,13.7-73.9c7.2-18.6,15.8-31.8,29.7-45.8c13.9-13.9,27.2-22.5,45.8-29.7c14-5.4,35.1-11.9,73.9-13.7C381.1,195.1,393.7,194.7,500,194.7z" fill="#0668E1"/><path d="M500,621.7c-67.2,0-121.7-54.5-121.7-121.7s54.5-121.7,121.7-121.7S621.7,432.8,621.7,500S567.2,621.7,500,621.7z M500,316.7c-101.5,0-183.3,81.9-183.3,183.3S398.5,683.3,500,683.3S683.3,601.5,683.3,500S601.5,316.7,500,316.7z M683.3,312.5c0,23.7-19.2,42.9-42.9,42.9s-42.9-19.2-42.9-42.9s19.2-42.9,42.9-42.9S683.3,288.8,683.3,312.5z" fill="#0668E1"/></svg>
